<svg width="32" height="32" viewBox="0 0 32 32" fill="none" xmlns="http://www.w3.org/2000/svg">
<path d="M15.3333 12.6667L11.9999 5.33334L8.66659 12.6667L1.33325 16L8.66659 19.3333L11.9999 26.6667L15.3333 19.3333L22.6666 16L15.3333 12.6667ZM13.3199 17.32L11.9999 20.2267L10.6799 17.32L7.77325 16L10.6799 14.68L11.9999 11.7733L13.3199 14.68L16.2266 16L13.3199 17.32Z" fill="#509DB7"/>
<path d="M25.3333 20L23.6667 23.6667L20 25.3333L23.6667 27L25.3333 30.6667L27 27L30.6667 25.3333L27 23.6667L25.3333 20Z" fill="#F03C45"/>
<path d="M25.3333 12L27 8.33334L30.6667 6.66668L27 5.00001L25.3333 1.33334L23.6667 5.00001L20 6.66668L23.6667 8.33334L25.3333 12Z" fill="#F99E2B"/>
</svg>
