<svg width="20" height="20" viewBox="0 0 20 20" fill="none" xmlns="http://www.w3.org/2000/svg">
<g clip-path="url(#clip0_7_56)">
<path d="M15.8335 7.49998L16.8752 5.20831L19.1668 4.16665L16.8752 3.12498L15.8335 0.833313L14.7918 3.12498L12.5002 4.16665L14.7918 5.20831L15.8335 7.49998Z" fill="#9BABB1"/>
<path d="M15.8335 12.5L14.7918 14.7916L12.5002 15.8333L14.7918 16.875L15.8335 19.1666L16.8752 16.875L19.1668 15.8333L16.8752 14.7916L15.8335 12.5Z" fill="#9BABB1"/>
<path d="M9.5835 7.91665L7.50016 3.33331L5.41683 7.91665L0.833496 9.99998L5.41683 12.0833L7.50016 16.6666L9.5835 12.0833L14.1668 9.99998L9.5835 7.91665ZM8.32516 10.825L7.50016 12.6416L6.67516 10.825L4.8585 9.99998L6.67516 9.17498L7.50016 7.35831L8.32516 9.17498L10.1418 9.99998L8.32516 10.825Z" fill="#9BABB1"/>
</g>
<defs>
<clipPath id="clip0_7_56">
<rect width="20" height="20" fill="white"/>
</clipPath>
</defs>
</svg>
