<svg width="122" height="167" viewBox="0 0 122 167" fill="none" xmlns="http://www.w3.org/2000/svg">
<g clip-path="url(#clip0_7_58)">
<path fill-rule="evenodd" clip-rule="evenodd" d="M60.8077 -0.882935H81.789C82.1658 0.565203 82.5289 2.02605 82.542 3.52456C82.549 15.8022 82.4364 28.0799 82.5882 40.3513C89.0826 40.3073 95.5697 40.3828 102.064 40.3073C103.418 40.3325 104.818 40.2443 106.16 40.5654C107.937 41.6673 107.402 43.9653 107.534 45.6843C107.362 49.9089 107.712 54.1463 107.375 58.3585C107.402 60.3104 104.891 60.4364 103.391 60.3796C96.1378 60.0775 88.8776 59.8318 81.6173 59.7061C82.1857 58.0375 82.6149 56.3123 82.5553 54.5431C82.4896 49.8397 82.496 45.1302 82.5355 40.4268C77.1449 40.2568 71.7606 40.4017 66.3766 40.2946C64.494 40.238 62.644 40.5717 60.8802 41.1446C60.55 29.6602 60.1401 18.1758 59.757 6.68517C59.8036 4.16673 58.8519 1.20755 60.8077 -0.882935Z" fill="#A7AE7B"/>
<path fill-rule="evenodd" clip-rule="evenodd" d="M32.2023 14.3855C33.4443 13.4348 35.1355 13.7496 36.6152 13.6741C41.7088 13.7623 46.8087 13.6048 51.9022 13.7434C53.6001 13.5795 54.3795 15.3614 54.1484 16.7278C53.7918 24.8626 53.5405 33.0036 53.1508 41.1446C50.9841 40.6472 48.7708 40.3262 46.5446 40.4016C41.6229 40.5023 36.7012 40.4206 31.786 40.4646C31.5417 44.9287 31.7068 49.3928 31.555 53.8504C31.4559 55.8525 31.8059 57.8423 32.4402 59.7437C22.3854 59.8697 12.3439 60.4804 2.2891 60.6441C1.00748 60.8832 0.181646 59.9641 -0.630859 59.2085C-0.432407 53.863 -0.650759 48.5112 -0.551466 43.1657C-0.604118 41.9694 0.0496218 40.3703 1.58214 40.5087C11.6239 40.2946 21.6719 40.515 31.7134 40.3891C31.6012 32.9468 31.7994 25.4985 31.5814 18.0562C31.6342 16.8348 31.4227 15.4496 32.2023 14.3855Z" fill="#F99E2B"/>
<path fill-rule="evenodd" clip-rule="evenodd" d="M60.8804 41.1446C62.6442 40.5715 64.4941 40.2379 66.3768 40.2945C71.7612 40.4016 77.1449 40.2569 82.5357 40.4268C82.4962 45.13 82.4894 49.8397 82.5555 54.543C82.6151 56.3123 82.1855 58.0374 81.6175 59.706C74.899 59.498 68.1869 59.2021 61.4682 59.0763C61.3033 53.1011 60.9662 47.1261 60.8804 41.1446Z" fill="#406A68"/>
<path fill-rule="evenodd" clip-rule="evenodd" d="M31.786 40.4646C36.7011 40.4206 41.6227 40.5023 46.5444 40.4016C48.7709 40.326 50.9836 40.6472 53.1506 41.1446C53.0119 47.1197 52.6881 53.0949 52.6154 59.0763C45.8838 59.1645 39.1652 59.5989 32.4399 59.7437C31.8057 57.8423 31.4555 55.8527 31.5548 53.8504C31.7068 49.3926 31.5414 44.9287 31.786 40.4646Z" fill="#ED5B2A"/>
<path fill-rule="evenodd" clip-rule="evenodd" d="M31.9977 66.1532C38.8154 66.0588 45.6064 66.8143 52.4241 66.8395C52.8803 72.865 52.6818 78.9095 52.8138 84.9475C45.8577 86.0556 38.7624 85.3191 31.7465 85.533H31.6078C32.0173 79.0731 31.1124 72.5817 31.9977 66.1532Z" fill="#086489"/>
<path fill-rule="evenodd" clip-rule="evenodd" d="M8.59134 67.7588C8.3142 66.147 9.9391 64.9255 11.5444 65.1962C18.3557 65.5046 25.1863 65.6558 31.9973 66.1532C31.1123 72.5817 32.0172 79.0731 31.6076 85.5331C24.05 85.5709 16.4793 85.2687 8.94153 85.6905C8.19528 79.7469 8.70371 73.7276 8.59134 67.7588ZM31.7464 85.5331C38.7622 85.319 45.8573 86.0557 52.8137 84.9475C53.3622 103.137 53.5734 121.334 54.0887 139.523C54.1086 141.412 54.2803 143.314 54.0161 145.19C53.349 146.815 51.2942 146.588 49.8277 146.626C44.7677 146.569 39.7136 146.651 34.6597 146.6C33.2859 146.701 31.6604 145.977 31.6738 144.491C31.4623 140.254 31.6207 136.004 31.6539 131.767C31.773 116.353 31.5745 100.946 31.7464 85.5331Z" fill="#509DB7"/>
<path fill-rule="evenodd" clip-rule="evenodd" d="M82.9043 66.2424C94.9739 65.8458 107.043 65.3798 119.113 65.0335C120.461 64.8383 121.564 65.5183 122.383 66.4879L122.383 84.3693C121.498 85.2067 120.381 85.8678 119.08 85.7168C107.136 85.7166 95.1851 85.6915 83.2408 85.7231C82.924 79.2316 83.3999 72.7276 82.9043 66.2424ZM61.6454 85.131C68.6808 86.3525 75.8815 85.4648 82.9899 85.723C83.0626 112.092 82.9766 138.467 83.0362 164.835C83.0296 166.189 83.1418 168.135 81.3912 168.544C78.1278 169.003 74.8113 168.645 71.5215 168.739C68.2316 168.651 64.9151 169.01 61.6517 168.544C59.8482 168.254 60.0199 166.164 60 164.861C60.6345 138.284 61.0044 111.701 61.6454 85.131Z" fill="#F03C45"/>
<path fill-rule="evenodd" clip-rule="evenodd" d="M61.3824 66.8144C68.3783 66.4744 75.3875 66.2037 82.3967 66.0903C82.8924 72.5756 82.4166 79.0795 82.7336 85.571H82.4828C75.3745 85.3128 68.1734 86.2007 61.1377 84.9792C61.2699 78.9222 61.2104 72.8651 61.3824 66.8144Z" fill="#B52326"/>
</g>
<defs>
<clipPath id="clip0_7_58">
<rect width="122" height="167" fill="white"/>
</clipPath>
</defs>
</svg>
