<svg width="160" height="60" viewBox="0 0 160 60" fill="none" xmlns="http://www.w3.org/2000/svg">
<g clip-path="url(#clip0_22_92)">
<path fill-rule="evenodd" clip-rule="evenodd" d="M141.48 -0.26544H147.83C147.944 0.169904 148.054 0.609068 148.058 1.05955C148.06 4.75051 148.026 8.44146 148.072 12.1305C150.038 12.1173 152.001 12.14 153.966 12.1173C154.376 12.1249 154.8 12.0984 155.206 12.1949C155.744 12.5261 155.582 13.217 155.622 13.7337C155.57 15.0038 155.676 16.2776 155.574 17.5439C155.582 18.1307 154.822 18.1686 154.368 18.1515C152.173 18.0607 149.976 17.9868 147.778 17.949C147.95 17.4474 148.08 16.9288 148.062 16.3969C148.042 14.983 148.044 13.5672 148.056 12.1532C146.425 12.1021 144.795 12.1457 143.166 12.1135C142.596 12.0965 142.036 12.1968 141.502 12.369C141.402 8.91654 141.278 5.46407 141.162 2.00971C141.176 1.25261 140.888 0.363007 141.48 -0.26544Z" fill="#A7AE7B"/>
<path fill-rule="evenodd" clip-rule="evenodd" d="M132.823 4.32461C133.199 4.0388 133.71 4.13344 134.158 4.11075C135.7 4.13725 137.243 4.08992 138.785 4.13157C139.299 4.08232 139.535 4.618 139.465 5.02877C139.357 7.47427 139.281 9.92165 139.163 12.369C138.507 12.2195 137.837 12.123 137.163 12.1457C135.674 12.1759 134.184 12.1514 132.697 12.1646C132.623 13.5066 132.673 14.8486 132.627 16.1887C132.597 16.7906 132.703 17.3887 132.895 17.9603C129.852 17.9982 126.813 18.1818 123.769 18.231C123.382 18.3029 123.132 18.0266 122.886 17.7995C122.946 16.1925 122.88 14.5836 122.91 12.9766C122.894 12.617 123.092 12.1362 123.556 12.1779C126.595 12.1135 129.636 12.1797 132.675 12.1419C132.641 9.90458 132.701 7.66544 132.635 5.42812C132.651 5.06091 132.587 4.6445 132.823 4.32461Z" fill="#F99E2B"/>
<path fill-rule="evenodd" clip-rule="evenodd" d="M141.502 12.369C142.036 12.1968 142.596 12.0965 143.165 12.1135C144.795 12.1457 146.424 12.1022 148.056 12.1532C148.044 13.5671 148.042 14.983 148.062 16.3969C148.08 16.9288 147.95 17.4474 147.778 17.949C145.745 17.8865 143.713 17.7976 141.68 17.7597C141.63 15.9634 141.528 14.1672 141.502 12.369Z" fill="#406A68"/>
<path fill-rule="evenodd" clip-rule="evenodd" d="M132.697 12.1646C134.185 12.1513 135.674 12.1759 137.164 12.1457C137.838 12.1229 138.507 12.2195 139.163 12.369C139.121 14.1653 139.023 15.9615 139.001 17.7597C136.964 17.7862 134.93 17.9168 132.895 17.9603C132.703 17.3887 132.597 16.7906 132.627 16.1887C132.673 14.8485 132.623 13.5066 132.697 12.1646Z" fill="#ED5B2A"/>
<path fill-rule="evenodd" clip-rule="evenodd" d="M0.012207 16.9325C2.23353 16.9268 4.4548 16.9401 6.67613 16.925C10.1371 25.5731 13.6119 34.2176 17.0629 42.8696C20.5558 34.2365 24.0047 25.5883 27.4617 16.942C29.677 16.9098 31.8922 16.9515 34.1076 16.9193C34.1235 28.1777 34.0955 39.4341 34.1216 50.6906C32.4101 50.7058 30.6986 50.6925 28.9851 50.6982C28.9752 42.703 29.0131 34.7078 28.9651 26.7126C25.6842 34.7154 22.3772 42.7087 19.0822 50.7058C17.6587 50.6925 16.2351 50.6963 14.8136 50.7001C11.8745 43.3958 8.90143 36.1028 5.95035 28.8042C5.67242 28.1039 5.4045 27.3998 5.06661 26.7221L5.0966 26.9417C5.1046 34.8612 5.09262 42.7806 5.1026 50.7001C3.40513 50.6944 1.70968 50.6982 0.012207 50.6982V16.9325ZM132.761 19.8872C134.824 19.8588 136.879 20.0859 138.943 20.0935C139.081 21.9049 139.021 23.722 139.061 25.5372C136.955 25.8703 134.808 25.6489 132.685 25.7132H132.643C132.767 23.7712 132.493 21.8198 132.761 19.8872ZM47.7953 25.3195C50.8403 24.8236 54.1893 25.276 56.6965 27.0779C58.9738 28.6698 60.3194 31.2043 60.8932 33.7842C61.2951 35.4441 61.3131 37.1533 61.2991 38.8474C55.4429 38.855 49.5867 38.8417 43.7305 38.853C43.8685 41.0638 44.3663 43.4563 46.1018 45.0709C47.7873 46.6476 50.3425 46.9599 52.5958 46.6571C55.121 46.3939 57.4243 45.2394 59.4376 43.8273C59.8975 45.2034 60.6133 46.5321 60.9432 47.9271C58.0941 50.083 54.4172 51.1487 50.7904 51.1336C47.7313 51.1884 44.5343 50.3348 42.289 48.2924C40.0077 46.2577 38.8861 43.3163 38.5482 40.4184C38.1623 36.8334 38.5861 33.0024 40.6735 29.9058C42.233 27.5208 44.8722 25.8022 47.7953 25.3195ZM46.3618 30.5512C45.0522 31.6869 44.3603 33.3091 44.0125 34.9255C47.9712 34.9122 51.93 34.9236 55.8888 34.9217C55.6249 33.5986 55.2709 32.2396 54.4132 31.1399C52.6298 28.7493 48.5431 28.5486 46.3618 30.5512ZM70.8081 30.1992C72.8915 27.3713 76.2064 25.1568 79.9512 25.1227C80.2092 26.7315 80.5171 28.3329 80.781 29.9399C76.7182 30.0894 72.8994 32.5406 71.118 35.976C71.0421 40.8537 71.112 45.7391 71.084 50.6187C69.3046 50.6017 67.5251 50.6395 65.7457 50.5941C65.7677 42.2733 65.7537 33.9526 65.7516 25.6318C67.1932 25.6318 68.6348 25.6432 70.0763 25.6281C70.3402 27.1479 70.5982 28.6698 70.8081 30.1992ZM90.9598 25.3612C93.1331 25.0148 95.3684 25.1397 97.5178 25.5713C98.1136 27.1007 98.7094 28.63 99.3072 30.1575C96.606 29.5045 93.653 29.1865 90.9998 30.1878C89.1084 30.8579 87.5929 32.3721 86.963 34.1873C86.2033 36.3129 86.1433 38.641 86.6212 40.831C87.0411 42.7314 88.1567 44.5693 89.9521 45.5838C91.7876 46.6873 94.0588 46.7915 96.1602 46.5549C98.1096 46.2974 99.857 45.4002 101.614 44.6185C102.11 45.9643 102.622 47.3044 103.138 48.6426C100.403 50.2382 97.2238 51.2111 93.9909 51.1487C90.392 51.196 86.6192 50.0357 84.1999 47.4199C81.5627 44.6109 80.749 40.6701 80.9929 37.0113C81.1509 34.0397 82.1166 30.9998 84.2419 28.7493C85.9614 26.9 88.4126 25.7568 90.9598 25.3612ZM101.209 25.6375C103.062 25.6659 104.921 25.5713 106.773 25.6773C107.619 27.7101 108.274 29.8168 109.054 31.8762C110.554 36.0214 112.033 40.1723 113.553 44.3119C115.764 38.0865 118.001 31.8705 120.243 25.6565C122.062 25.7019 123.904 25.5126 125.709 25.7606C125.259 26.7505 124.895 27.7726 124.495 28.7796C121.37 36.7918 118.249 44.8078 115.118 52.8181C114.346 54.7223 113.387 56.6378 111.793 58.0536C110.588 59.159 108.952 59.7571 107.303 59.9256H104.845C104.632 59.9066 104.42 59.8858 104.21 59.8631C103.664 58.4113 103.086 56.969 102.53 55.5211C104.41 55.7217 106.447 55.8618 108.194 55.0441C109.92 54.1014 110.178 52.0629 110.888 50.471C107.635 42.2033 104.456 33.9072 101.209 25.6375Z" fill="#086489"/>
<path fill-rule="evenodd" clip-rule="evenodd" d="M125.677 20.3699C125.593 19.8853 126.085 19.5181 126.571 19.5995C128.632 19.6922 130.7 19.7377 132.761 19.8872C132.493 21.8198 132.767 23.7712 132.643 25.7133C130.356 25.7246 128.064 25.6338 125.783 25.7606C125.557 23.9738 125.711 22.1642 125.677 20.3699ZM132.685 25.7133C134.808 25.6489 136.956 25.8704 139.061 25.5372C139.227 31.0055 139.291 36.4757 139.447 41.944C139.453 42.5118 139.505 43.0835 139.425 43.6475C139.223 44.1359 138.601 44.0677 138.157 44.0791C136.626 44.0621 135.096 44.0867 133.567 44.0715C133.151 44.1018 132.659 43.8841 132.663 43.4374C132.599 42.1636 132.647 40.8859 132.657 39.6121C132.693 34.9785 132.633 30.3468 132.685 25.7133Z" fill="#509DB7"/>
<path fill-rule="evenodd" clip-rule="evenodd" d="M148.014 19.8683C151.667 19.7491 155.32 19.609 158.972 19.5049C159.38 19.4462 159.714 19.6506 159.962 19.9421L159.962 25.3177C159.694 25.5694 159.356 25.7681 158.962 25.7227C155.348 25.7227 151.731 25.7151 148.116 25.7246C148.02 23.7731 148.164 21.8179 148.014 19.8683ZM141.58 25.5467C143.709 25.9139 145.889 25.647 148.04 25.7246C148.062 33.6516 148.036 41.5806 148.054 49.5076C148.052 49.9146 148.086 50.4995 147.556 50.6225C146.568 50.7607 145.565 50.6528 144.569 50.6812C143.573 50.6547 142.57 50.7625 141.582 50.6225C141.036 50.5354 141.088 49.907 141.082 49.5152C141.274 41.5257 141.386 33.5343 141.58 25.5467Z" fill="#F03C45"/>
<path fill-rule="evenodd" clip-rule="evenodd" d="M141.654 20.0859C143.771 19.9837 145.893 19.9023 148.014 19.8683C148.164 21.8179 148.02 23.7731 148.116 25.7246H148.04C145.889 25.647 143.709 25.9139 141.58 25.5467C141.62 23.7258 141.602 21.9049 141.654 20.0859Z" fill="#B52326"/>
</g>
<defs>
<clipPath id="clip0_22_92">
<rect width="160" height="60" fill="white"/>
</clipPath>
</defs>
</svg>
